<?xml version="1.0" encoding="UTF-8"?>
<svg xmlns="http://www.w3.org/2000/svg" xmlns:xlink="http://www.w3.org/1999/xlink" width="300px" height="150px" viewBox="0 0 300 150" version="1.1">
<g id="surface1">
<path style=" stroke:none;fill-rule:nonzero;fill:rgb(96.078431%,96.078431%,96.078431%);fill-opacity:1;" d="M 56.542969 132.453125 L 56.542969 121.492188 L 32.3125 121.492188 L 32.3125 138.222656 L 56.542969 138.222656 Z M 56.542969 132.453125 "/>
<path style=" stroke:none;fill-rule:nonzero;fill:rgb(96.078431%,96.078431%,96.078431%);fill-opacity:1;" d="M 1.757812 110.507812 L 1.757812 138.222656 L 25.957031 138.222656 L 25.957031 99.550781 L 1.757812 99.550781 Z M 1.757812 110.507812 "/>
<path style=" stroke:none;fill-rule:nonzero;fill:rgb(96.078431%,96.078431%,96.078431%);fill-opacity:1;" d="M 25.957031 55.664062 L 25.957031 44.679688 L 1.757812 44.679688 L 1.757812 61.140625 L 25.957031 61.140625 Z M 25.957031 55.664062 "/>
<path style=" stroke:none;fill-rule:nonzero;fill:rgb(96.078431%,96.078431%,96.078431%);fill-opacity:1;" d="M 25.957031 88.5625 L 25.957031 66.621094 L 1.757812 66.621094 L 1.757812 94.070312 L 25.957031 94.070312 Z M 25.957031 88.5625 "/>
<path style=" stroke:none;fill-rule:nonzero;fill:rgb(96.078431%,96.078431%,96.078431%);fill-opacity:1;" d="M 56.542969 88.5625 L 56.542969 66.621094 L 32.3125 66.621094 L 32.3125 94.070312 L 56.542969 94.070312 Z M 56.542969 88.5625 "/>
<path style=" stroke:none;fill-rule:nonzero;fill:rgb(96.078431%,96.078431%,96.078431%);fill-opacity:1;" d="M 56.542969 110.507812 L 56.542969 99.550781 L 32.3125 99.550781 L 32.3125 116.015625 L 56.542969 116.015625 Z M 56.542969 110.507812 "/>
<path style=" stroke:none;fill-rule:nonzero;fill:rgb(96.078431%,96.078431%,96.078431%);fill-opacity:1;" d="M 56.542969 55.664062 L 56.542969 33.71875 L 32.3125 33.71875 L 32.3125 61.140625 L 56.542969 61.140625 Z M 56.542969 55.664062 "/>
<path style=" stroke:none;fill-rule:nonzero;fill:rgb(96.078431%,96.078431%,96.078431%);fill-opacity:1;" d="M 56.542969 22.734375 L 56.542969 11.777344 L 32.3125 11.777344 L 32.3125 28.242188 L 56.542969 28.242188 Z M 56.542969 22.734375 "/>
<path style=" stroke:none;fill-rule:nonzero;fill:rgb(96.078431%,96.078431%,96.078431%);fill-opacity:1;" d="M 62.898438 99.550781 L 87.097656 99.550781 L 87.097656 105.027344 L 62.898438 105.027344 Z M 62.898438 99.550781 "/>
<path style=" stroke:none;fill-rule:nonzero;fill:rgb(96.078431%,96.078431%,96.078431%);fill-opacity:1;" d="M 87.101562 132.453125 L 87.101562 110.507812 L 62.898438 110.507812 L 62.898438 138.222656 L 87.101562 138.222656 Z M 87.101562 132.453125 "/>
<path style=" stroke:none;fill-rule:nonzero;fill:rgb(96.078431%,96.078431%,96.078431%);fill-opacity:1;" d="M 93.457031 66.621094 L 117.65625 66.621094 L 117.65625 72.097656 L 93.457031 72.097656 Z M 93.457031 66.621094 "/>
<path style=" stroke:none;fill-rule:nonzero;fill:rgb(96.078431%,96.078431%,96.078431%);fill-opacity:1;" d="M 117.6875 132.453125 L 117.6875 99.550781 L 93.457031 99.550781 L 93.457031 138.222656 L 117.6875 138.222656 Z M 117.6875 132.453125 "/>
<path style=" stroke:none;fill-rule:nonzero;fill:rgb(96.078431%,96.078431%,96.078431%);fill-opacity:1;" d="M 117.6875 88.5625 L 117.6875 77.609375 L 93.457031 77.609375 L 93.457031 94.070312 L 117.6875 94.070312 Z M 117.6875 88.5625 "/>
<path style=" stroke:none;fill-rule:nonzero;fill:rgb(96.078431%,96.078431%,96.078431%);fill-opacity:1;" d="M 148.242188 66.621094 L 148.242188 55.664062 L 124.042969 55.664062 L 124.042969 72.128906 L 148.242188 72.128906 Z M 148.242188 66.621094 "/>
<path style=" stroke:none;fill-rule:nonzero;fill:rgb(96.078431%,96.078431%,96.078431%);fill-opacity:1;" d="M 124.042969 22.734375 L 148.242188 22.734375 L 148.242188 28.210938 L 124.042969 28.210938 Z M 124.042969 22.734375 "/>
<path style=" stroke:none;fill-rule:nonzero;fill:rgb(96.078431%,96.078431%,96.078431%);fill-opacity:1;" d="M 148.242188 44.679688 L 148.242188 33.71875 L 124.042969 33.71875 L 124.042969 50.1875 L 148.242188 50.1875 Z M 148.242188 44.679688 "/>
<path style=" stroke:none;fill-rule:nonzero;fill:rgb(96.078431%,96.078431%,96.078431%);fill-opacity:1;" d="M 148.242188 99.550781 L 148.242188 77.609375 L 124.042969 77.609375 L 124.042969 105.03125 L 148.242188 105.03125 Z M 148.242188 99.550781 "/>
<path style=" stroke:none;fill-rule:nonzero;fill:rgb(96.078431%,96.078431%,96.078431%);fill-opacity:1;" d="M 148.242188 132.453125 L 148.242188 110.507812 L 124.042969 110.507812 L 124.042969 138.222656 L 148.242188 138.222656 Z M 148.242188 132.453125 "/>
<path style=" stroke:none;fill-rule:nonzero;fill:rgb(96.078431%,96.078431%,96.078431%);fill-opacity:1;" d="M 210.097656 131.84375 L 210.097656 120.886719 L 185.871094 120.886719 L 185.871094 137.617188 L 210.097656 137.617188 Z M 210.097656 131.84375 "/>
<path style=" stroke:none;fill-rule:nonzero;fill:rgb(96.078431%,96.078431%,96.078431%);fill-opacity:1;" d="M 155.3125 109.902344 L 155.3125 137.617188 L 179.511719 137.617188 L 179.511719 98.945312 L 155.3125 98.945312 Z M 155.3125 109.902344 "/>
<path style=" stroke:none;fill-rule:nonzero;fill:rgb(96.078431%,96.078431%,96.078431%);fill-opacity:1;" d="M 179.511719 55.058594 L 179.511719 44.070312 L 155.3125 44.070312 L 155.3125 60.535156 L 179.511719 60.535156 Z M 179.511719 55.058594 "/>
<path style=" stroke:none;fill-rule:nonzero;fill:rgb(96.078431%,96.078431%,96.078431%);fill-opacity:1;" d="M 179.511719 87.957031 L 179.511719 66.015625 L 155.3125 66.015625 L 155.3125 93.464844 L 179.511719 93.464844 Z M 179.511719 87.957031 "/>
<path style=" stroke:none;fill-rule:nonzero;fill:rgb(96.078431%,96.078431%,96.078431%);fill-opacity:1;" d="M 210.097656 87.957031 L 210.097656 66.015625 L 185.871094 66.015625 L 185.871094 93.464844 L 210.097656 93.464844 Z M 210.097656 87.957031 "/>
<path style=" stroke:none;fill-rule:nonzero;fill:rgb(96.078431%,96.078431%,96.078431%);fill-opacity:1;" d="M 210.097656 109.902344 L 210.097656 98.945312 L 185.871094 98.945312 L 185.871094 115.410156 L 210.097656 115.410156 Z M 210.097656 109.902344 "/>
<path style=" stroke:none;fill-rule:nonzero;fill:rgb(96.078431%,96.078431%,96.078431%);fill-opacity:1;" d="M 210.097656 55.058594 L 210.097656 33.113281 L 185.871094 33.113281 L 185.871094 60.535156 L 210.097656 60.535156 Z M 210.097656 55.058594 "/>
<path style=" stroke:none;fill-rule:nonzero;fill:rgb(96.078431%,96.078431%,96.078431%);fill-opacity:1;" d="M 210.097656 22.128906 L 210.097656 11.171875 L 185.871094 11.171875 L 185.871094 27.636719 L 210.097656 27.636719 Z M 210.097656 22.128906 "/>
<path style=" stroke:none;fill-rule:nonzero;fill:rgb(96.078431%,96.078431%,96.078431%);fill-opacity:1;" d="M 216.457031 98.945312 L 240.65625 98.945312 L 240.65625 104.421875 L 216.457031 104.421875 Z M 216.457031 98.945312 "/>
<path style=" stroke:none;fill-rule:nonzero;fill:rgb(96.078431%,96.078431%,96.078431%);fill-opacity:1;" d="M 240.65625 131.84375 L 240.65625 109.902344 L 216.457031 109.902344 L 216.457031 137.617188 L 240.65625 137.617188 Z M 240.65625 131.84375 "/>
<path style=" stroke:none;fill-rule:nonzero;fill:rgb(96.078431%,96.078431%,96.078431%);fill-opacity:1;" d="M 247.011719 66.015625 L 271.210938 66.015625 L 271.210938 71.492188 L 247.011719 71.492188 Z M 247.011719 66.015625 "/>
<path style=" stroke:none;fill-rule:nonzero;fill:rgb(96.078431%,96.078431%,96.078431%);fill-opacity:1;" d="M 271.242188 131.84375 L 271.242188 98.945312 L 247.011719 98.945312 L 247.011719 137.617188 L 271.242188 137.617188 Z M 271.242188 131.84375 "/>
<path style=" stroke:none;fill-rule:nonzero;fill:rgb(96.078431%,96.078431%,96.078431%);fill-opacity:1;" d="M 271.242188 87.957031 L 271.242188 77 L 247.011719 77 L 247.011719 93.464844 L 271.242188 93.464844 Z M 271.242188 87.957031 "/>
<path style=" stroke:none;fill-rule:nonzero;fill:rgb(96.078431%,96.078431%,96.078431%);fill-opacity:1;" d="M 301.796875 66.015625 L 301.796875 55.058594 L 277.597656 55.058594 L 277.597656 71.523438 L 301.796875 71.523438 Z M 301.796875 66.015625 "/>
<path style=" stroke:none;fill-rule:nonzero;fill:rgb(96.078431%,96.078431%,96.078431%);fill-opacity:1;" d="M 277.597656 22.128906 L 301.796875 22.128906 L 301.796875 27.605469 L 277.597656 27.605469 Z M 277.597656 22.128906 "/>
<path style=" stroke:none;fill-rule:nonzero;fill:rgb(96.078431%,96.078431%,96.078431%);fill-opacity:1;" d="M 301.796875 44.070312 L 301.796875 33.113281 L 277.597656 33.113281 L 277.597656 49.578125 L 301.796875 49.578125 Z M 301.796875 44.070312 "/>
<path style=" stroke:none;fill-rule:nonzero;fill:rgb(96.078431%,96.078431%,96.078431%);fill-opacity:1;" d="M 301.796875 98.945312 L 301.796875 77 L 277.597656 77 L 277.597656 104.421875 L 301.796875 104.421875 Z M 301.796875 98.945312 "/>
<path style=" stroke:none;fill-rule:nonzero;fill:rgb(96.078431%,96.078431%,96.078431%);fill-opacity:1;" d="M 301.796875 131.84375 L 301.796875 109.902344 L 277.597656 109.902344 L 277.597656 137.617188 L 301.796875 137.617188 Z M 301.796875 131.84375 "/>
</g>
</svg>
